<svg width="400" height="400" viewBox="0 0 400 400" fill="none" xmlns="http://www.w3.org/2000/svg">
<path fill-rule="evenodd" clip-rule="evenodd" d="M347 10.757C349.761 10.757 352 12.9955 352 15.757V44.757C352 47.5184 349.761 49.757 347 49.757H293C290.239 49.757 288 51.9955 288 54.757V129.246C324.433 156.612 348 200.182 348 249.257C348 312.684 308.633 366.916 253 388.853V372.582C300.145 351.525 333 304.228 333 249.257C333 209.274 315.619 173.352 288 148.632V249.257C288 298.963 247.706 339.257 198 339.257C148.294 339.257 108 298.963 108 249.257C108 199.551 148.294 159.257 198 159.257C219.077 159.257 238.462 166.502 253.799 178.638C257.334 181.434 263 179.066 263 174.56V130.907C243.718 120.294 221.564 114.257 198 114.257C123.442 114.257 63 174.699 63 249.257C63 304.616 96.3206 352.192 144 373.024V389.243C87.8393 367.565 48 313.063 48 249.257C48 166.414 115.157 99.257 198 99.257C221.287 99.257 243.335 104.564 263 114.034V15.757C263 12.9955 265.239 10.757 268 10.757H347ZM263 249.257C263 213.358 233.898 184.257 198 184.257C162.101 184.257 133 213.358 133 249.257C133 285.155 162.101 314.257 198 314.257C233.898 314.257 263 285.155 263 249.257Z" fill="url(#paint0_linear_2_3)"/>
<path fill-rule="evenodd" clip-rule="evenodd" d="M198 299.257C225.614 299.257 248 276.871 248 249.257C248 221.643 225.614 199.257 198 199.257C170.386 199.257 148 221.643 148 249.257C148 276.871 170.386 299.257 198 299.257ZM198 264.257C206.284 264.257 213 257.541 213 249.257C213 240.973 206.284 234.257 198 234.257C189.716 234.257 183 240.973 183 249.257C183 257.541 189.716 264.257 198 264.257Z" fill="url(#paint1_linear_2_3)"/>
<path fill-rule="evenodd" clip-rule="evenodd" d="M198 299.257C225.614 299.257 248 276.871 248 249.257C248 221.643 225.614 199.257 198 199.257C170.386 199.257 148 221.643 148 249.257C148 276.871 170.386 299.257 198 299.257ZM198 264.257C206.284 264.257 213 257.541 213 249.257C213 240.973 206.284 234.257 198 234.257C189.716 234.257 183 240.973 183 249.257C183 257.541 189.716 264.257 198 264.257Z" fill="#DD001B"/>
<path d="M318 249.257C318 315.531 264.274 369.257 198 369.257C131.726 369.257 78 315.531 78 249.257C78 182.983 131.726 129.257 198 129.257C221.954 129.257 244.269 136.276 263 148.369V166.789C245.121 152.678 222.544 144.257 198 144.257C140.01 144.257 93 191.267 93 249.257C93 307.247 140.01 354.257 198 354.257C255.99 354.257 303 307.247 303 249.257C303 229.462 297.522 210.946 288 195.143V169.882C306.671 191.036 318 218.824 318 249.257Z" fill="url(#paint2_linear_2_3)"/>
<defs>
<linearGradient id="paint0_linear_2_3" x1="-122" y1="-125.865" x2="589.335" y2="548.176" gradientUnits="userSpaceOnUse">
<stop stop-color="#41C3D3"/>
<stop offset="1" stop-color="#41C3D3" stop-opacity="0"/>
</linearGradient>
<linearGradient id="paint1_linear_2_3" x1="-80.5" y1="485.257" x2="575" y2="-96.243" gradientUnits="userSpaceOnUse">
<stop stop-color="#8390D5"/>
<stop offset="1" stop-color="#8390D5" stop-opacity="0"/>
</linearGradient>
<linearGradient id="paint2_linear_2_3" x1="-80.5" y1="485.257" x2="575" y2="-96.243" gradientUnits="userSpaceOnUse">
<stop stop-color="#8390D5"/>
<stop offset="1" stop-color="#8390D5" stop-opacity="0"/>
</linearGradient>
</defs>
</svg>
