<svg width="765" height="336" viewBox="0 0 765 336" fill="none" xmlns="http://www.w3.org/2000/svg">
<path fill-rule="evenodd" clip-rule="evenodd" d="M267.274 0C269.742 0 271.743 1.98729 271.743 4.43874V30.1834C271.743 32.6349 269.742 34.6221 267.274 34.6221H219.003C216.535 34.6221 214.534 36.6094 214.534 39.0609V105.188C247.101 129.483 268.167 168.162 268.167 211.728C268.167 268.035 232.978 316.179 183.248 335.654V321.209C225.39 302.516 254.759 260.528 254.759 211.728C254.759 176.233 239.222 144.343 214.534 122.398V211.728C214.534 255.854 178.515 291.625 134.084 291.625C89.6523 291.625 53.6335 255.854 53.6335 211.728C53.6335 167.602 89.6523 131.83 134.084 131.83C152.924 131.83 170.252 138.262 183.962 149.036C187.121 151.518 192.187 149.416 192.187 145.416V106.663C174.951 97.2415 155.148 91.8818 134.084 91.8818C67.4366 91.8818 13.4084 145.539 13.4084 211.728C13.4084 260.872 43.1933 303.108 85.8136 321.601V336C35.612 316.755 0 268.372 0 211.728C0 138.184 60.0313 78.5656 134.084 78.5656C154.9 78.5656 174.608 83.2766 192.187 91.6835V4.43874C192.187 1.98729 194.188 0 196.656 0H267.274ZM192.187 211.728C192.187 179.859 166.173 154.024 134.084 154.024C101.994 154.024 75.9808 179.859 75.9808 211.728C75.9808 243.596 101.994 269.431 134.084 269.431C166.173 269.431 192.187 243.596 192.187 211.728Z" fill="url(#paint0_linear_2_62)"/>
<path fill-rule="evenodd" clip-rule="evenodd" d="M134.084 256.115C158.768 256.115 178.778 236.242 178.778 211.728C178.778 187.213 158.768 167.34 134.084 167.34C109.4 167.34 89.3891 187.213 89.3891 211.728C89.3891 236.242 109.4 256.115 134.084 256.115ZM134.084 225.044C141.489 225.044 147.492 219.082 147.492 211.728C147.492 204.373 141.489 198.411 134.084 198.411C126.678 198.411 120.675 204.373 120.675 211.728C120.675 219.082 126.678 225.044 134.084 225.044Z" fill="url(#paint1_linear_2_62)"/>
<path fill-rule="evenodd" clip-rule="evenodd" d="M134.084 256.115C158.768 256.115 178.778 236.242 178.778 211.728C178.778 187.213 158.768 167.34 134.084 167.34C109.4 167.34 89.3891 187.213 89.3891 211.728C89.3891 236.242 109.4 256.115 134.084 256.115ZM134.084 225.044C141.489 225.044 147.492 219.082 147.492 211.728C147.492 204.373 141.489 198.411 134.084 198.411C126.678 198.411 120.675 204.373 120.675 211.728C120.675 219.082 126.678 225.044 134.084 225.044Z" fill="#DD001B"/>
<path d="M241.351 211.728C241.351 270.562 193.326 318.257 134.084 318.257C74.8418 318.257 26.8167 270.562 26.8167 211.728C26.8167 152.893 74.8418 105.198 134.084 105.198C155.496 105.198 175.443 111.429 192.187 122.164V138.517C176.205 125.99 156.024 118.514 134.084 118.514C82.247 118.514 40.2251 160.247 40.2251 211.728C40.2251 263.208 82.247 304.941 134.084 304.941C185.92 304.941 227.942 263.208 227.942 211.728C227.942 194.155 223.046 177.718 214.534 163.688V141.263C231.224 160.042 241.351 184.711 241.351 211.728Z" fill="url(#paint2_linear_2_62)"/>
<path d="M366.11 103.807H372.089C372.919 111.306 378.898 115.944 387.715 115.944C396.706 115.944 402.599 111.089 402.599 103.676C402.599 97.6946 398.627 93.9667 389.635 91.6694L384.703 90.4123C372.875 87.3346 367.681 82.003 367.681 73.0301C367.681 62.8436 375.581 56.2115 387.715 56.2115C399.15 56.2115 407.007 62.7569 407.618 72.8134H401.638C400.765 65.7478 395.615 61.6299 387.715 61.6299C378.986 61.6299 373.792 65.8779 373.792 73.0301C373.792 78.882 377.545 82.3497 386.275 84.6038L391.381 85.9475C403.646 89.1119 408.709 94.3135 408.709 103.676C408.709 114.34 400.373 121.362 387.715 121.362C375.188 121.362 366.852 114.6 366.11 103.807Z" fill="black"/>
<path d="M459.82 120.062L453.666 100.902H430.795L424.64 120.062H418.53L439.306 57.5119H445.154L465.93 120.062H459.82ZM442.186 65.271L432.41 95.7873H452.051L442.274 65.271H442.186Z" fill="black"/>
<path d="M476.624 103.807H482.604C483.433 111.306 489.413 115.944 498.229 115.944C507.221 115.944 513.113 111.089 513.113 103.676C513.113 97.6946 509.141 93.9667 500.15 91.6694L495.218 90.4123C483.389 87.3346 478.195 82.003 478.195 73.0301C478.195 62.8436 486.095 56.2115 498.229 56.2115C509.665 56.2115 517.521 62.7569 518.132 72.8134H512.153C511.28 65.7478 506.129 61.6299 498.229 61.6299C489.5 61.6299 484.306 65.8779 484.306 73.0301C484.306 78.882 488.059 82.3497 496.789 84.6038L501.896 85.9475C514.16 89.1119 519.223 94.3135 519.223 103.676C519.223 114.34 510.887 121.362 498.229 121.362C485.703 121.362 477.366 114.6 476.624 103.807Z" fill="black"/>
<path d="M555.712 120.062H549.776V62.8869H530.397V57.5119H575.092V62.8869H555.712V120.062Z" fill="black"/>
<path d="M381.015 237.366V268.315H365.368V174.491H384.747L400.263 228.198H401.376L416.762 174.491H436.207V268.315H420.559V237.366L422.916 199.914H421.541L407.072 246.273H394.502L380.033 199.914H378.658L381.015 237.366Z" fill="black"/>
<path d="M515.819 196.598V268.315H498.469V256.287H497.356C493.821 264.934 486.03 269.876 475.62 269.876C459.907 269.876 451.527 260.513 451.527 243.022V196.598H469.466V238.731C469.466 249.264 473.721 254.271 482.822 254.271C491.988 254.271 497.946 247.964 497.946 238.081V196.598H515.819Z" fill="black"/>
<path d="M537.359 217.534C537.359 203.62 548.62 194.907 566.493 194.907C583.974 194.907 594.646 202.71 595.497 216.169H578.605C577.754 211.422 573.04 208.497 566.362 208.497C559.553 208.497 555.036 211.552 555.036 216.104C555.036 220.005 558.048 222.346 565.053 223.776L576.248 226.052C590.848 229.043 597.33 235.22 597.33 246.143C597.33 260.643 585.414 269.811 566.624 269.811C548.161 269.811 536.77 261.943 535.788 248.484H553.465C554.578 253.426 559.422 256.157 566.886 256.157C574.219 256.157 578.933 253.101 578.933 248.419C578.933 244.388 576.183 242.437 568.588 240.812L557.786 238.536C544.233 235.61 537.359 228.588 537.359 217.534Z" fill="black"/>
<path d="M650.492 181.968C643.159 181.968 638.249 177.482 638.249 170.72C638.249 163.957 643.159 159.471 650.492 159.471C657.825 159.471 662.8 163.957 662.8 170.72C662.8 177.482 657.825 181.968 650.492 181.968ZM681.329 268.315H618.935V254.141H642.112V210.837H620.114V196.598H659.527V254.141H681.329V268.315Z" fill="black"/>
<path d="M765 221.631H747.454C746.275 213.568 741.431 209.667 733.64 209.667C724.015 209.667 718.712 216.819 718.712 229.953V234.765C718.712 247.899 724.015 255.051 733.64 255.051C741.496 255.051 746.21 251.345 747.454 243.673H765C763.429 260.773 752.43 269.876 733.771 269.876C712.493 269.876 700.708 257.912 700.708 236.13V228.588C700.708 206.806 712.493 194.842 733.771 194.842C752.43 194.842 763.298 204.075 765 221.631Z" fill="black"/>
<defs>
<linearGradient id="paint0_linear_2_62" x1="-427.796" y1="-121.286" x2="-14.2353" y2="989.55" gradientUnits="userSpaceOnUse">
<stop stop-color="#41C3D3"/>
<stop offset="1" stop-color="#41C3D3" stop-opacity="0"/>
</linearGradient>
<linearGradient id="paint1_linear_2_62" x1="-323.364" y1="421.236" x2="79.1336" y2="-590.899" gradientUnits="userSpaceOnUse">
<stop stop-color="#8390D5"/>
<stop offset="1" stop-color="#8390D5" stop-opacity="0"/>
</linearGradient>
<linearGradient id="paint2_linear_2_62" x1="-323.364" y1="421.236" x2="79.1336" y2="-590.899" gradientUnits="userSpaceOnUse">
<stop stop-color="#8390D5"/>
<stop offset="1" stop-color="#8390D5" stop-opacity="0"/>
</linearGradient>
</defs>
</svg>
